# xmcd
#
# Track frame offsets: 
#        150
#        15493
#        37696
#        52619
#        74972
#        90932
#        113528
#        137177
#        164206
#        180829
#        208461
#        226241
#        246480
#        264776
#        282861
#        303865
#        327590
#        338213
#
# Disc length: 4787 seconds
#
# Revision: 0
# Processed by: cddbd v1.5.2PL0 Copyright (c) Steve Scherf et al.
# Submitted via: ExactAudioCopy v0.95a5
#
DISCID=f712b112
DTITLE=Various Artist - Woman and The Blues  CD-3
DYEAR=2003
DGENRE=Blues
TTITLE0=DABBIE DAVIES - She's Taking Notes
TTITLE1=ETTA JAMES - I'll Take Care of You
TTITLE2=SHEMEKIA COPELAND - Wild Wild Woman
TTITLE3=DIANE SCHUUR - I'd Fly
TTITLE4=DEBORAH COLEMAN - Look What You Do to Me
TTITLE5=BONNIE RAITT - The Kokomo Medley
TTITLE6=BIG TIME SARAH - You Don't Love Me Baby
TTITLE7=JOANNA CONNOR - Heart of the Blues
TTITLE8=ETTA JAMES - Hound Dog
TTITLE9=VALA CUPP - Nightmare Blues
TTITLE10=MARCIA BALL - The Story on My Life
TTITLE11=LAVERNE BUTLER - Backwater Blues
TTITLE12=KOKO TAYLOR - Spellbound
TTITLE13=SADE - Clean Heart
TTITLE14=KATIE WEBSTER - The Love You Save
TTITLE15=ETTA JAMES - Love It Or Leave It Alone
TTITLE16=DEBBIE DAVIES - Steppin' Out
TTITLE17=E.C.SCOTT -  Lyin' and Cheatin'
EXTD=
EXTT0=
EXTT1=
EXTT2=
EXTT3=
EXTT4=
EXTT5=
EXTT6=
EXTT7=
EXTT8=
EXTT9=
EXTT10=
EXTT11=
EXTT12=
EXTT13=
EXTT14=
EXTT15=
EXTT16=
EXTT17=
PLAYORDER=
